# xmcd CD database file
#
# Track frame offsets:
#	200
#	24605
#	45257
#	76404
#	102468
#	128201
#	146509
#	164893
#	180913
#	206020
#	229641
#
# Disc length: 3233 seconds
#
# Revision: 0
# Processed by: cddbd v1.5PL3 Copyright (c) Steve Scherf et al.
# Submitted via: CDex 1.50
#
DISCID=8f0c9f0b
DTITLE=Sheila Landis - COLORS OF BRAZIL
DYEAR=1900
DGENRE=Jazz
TTITLE0=Summertime
TTITLE1=I Don't Speak Your Language
TTITLE2=What a Difference a Day Made
TTITLE3=House by the Sea
TTITLE4=Parenthe-Seizure
TTITLE5=Angel Says
TTITLE6=Agua de Beber
TTITLE7=Antonio
TTITLE8=Girl from Ipanema
TTITLE9=Nature Boy
TTITLE10=I Need to Belive
EXTD=
EXTT0=
EXTT1=
EXTT2=
EXTT3=
EXTT4=
EXTT5=
EXTT6=
EXTT7=
EXTT8=
EXTT9=
EXTT10=
PLAYORDER=
